<svg xmlns="http://www.w3.org/2000/svg" xmlns:xlink="http://www.w3.org/1999/xlink" width="300" zoomAndPan="magnify" viewBox="0 0 224.87999 225" height="300" preserveAspectRatio="xMidYMid meet" version="1.0"><defs><g/><clipPath id="1a89e414e5"><path d="M 4.621094 4.925781 L 220.25 4.925781 L 220.25 220.058594 L 4.621094 220.058594 Z M 4.621094 4.925781 " clip-rule="nonzero"/></clipPath></defs><g clip-path="url(#1a89e414e5)"><path fill="#2d8407" d="M 213.511719 188.738281 C 213.511719 191.761719 210.8125 194.460938 207.789062 194.460938 L 184.875 194.460938 C 182.84375 194.460938 181.503906 195.800781 181.503906 197.832031 L 181.503906 210.292969 L 159.949219 195.132812 C 159.261719 194.808594 158.589844 194.460938 157.917969 194.460938 L 114.121094 194.460938 C 111.097656 194.460938 108.398438 191.761719 108.398438 188.738281 L 108.398438 172.21875 L 140.75 172.21875 C 147.8125 172.21875 153.210938 166.496094 153.210938 159.757812 L 153.210938 126.066406 L 207.460938 126.066406 C 210.488281 126.066406 213.167969 128.765625 213.167969 131.789062 L 213.167969 188.738281 Z M 66.953125 165.480469 C 66.28125 165.480469 65.269531 165.824219 64.921875 166.167969 L 43.710938 184.011719 L 43.710938 168.847656 C 43.710938 166.839844 42.351562 165.480469 40.34375 165.480469 L 17.085938 165.480469 C 14.058594 165.480469 11.359375 162.800781 11.359375 159.757812 L 11.359375 86.304688 C 11.359375 83.28125 14.058594 80.582031 17.085938 80.582031 L 110.75 80.582031 L 112.78125 81.59375 L 123.902344 120.683594 C 124.898438 124.054688 129.625 124.054688 130.296875 120.683594 L 138.71875 90.363281 L 146.472656 94.058594 L 146.472656 159.757812 C 146.472656 162.800781 143.773438 165.5 140.75 165.5 Z M 180.164062 20.605469 L 115.136719 74.855469 L 85.484375 60.710938 Z M 134.335938 82.933594 C 134.011719 83.28125 133.664062 83.605469 133.664062 84.292969 L 127.273438 106.863281 L 119.519531 79.910156 L 174.097656 34.425781 Z M 178.136719 100.453125 L 151.507812 88.332031 L 142.089844 83.949219 L 193.640625 21.292969 Z M 207.789062 119.328125 L 153.535156 119.328125 L 153.535156 96.410156 L 179.476562 108.203125 C 181.503906 109.21875 183.859375 107.878906 184.203125 105.847656 C 201.394531 16.566406 206.773438 1.75 198.351562 5.445312 L 76.046875 57.667969 C 73.347656 58.679688 73.347656 62.71875 76.046875 63.734375 L 96.929688 73.84375 L 17.085938 73.84375 C 10.019531 73.84375 4.621094 79.566406 4.621094 86.304688 L 4.621094 159.757812 C 4.621094 166.839844 10.347656 172.21875 17.085938 172.21875 L 36.628906 172.21875 L 36.628906 191.09375 C 36.628906 194.117188 40 195.476562 42.027344 193.792969 L 67.964844 172.21875 L 101.660156 172.21875 L 101.660156 188.738281 C 101.660156 195.800781 107.382812 201.199219 114.121094 201.199219 L 156.90625 201.199219 L 182.84375 219.386719 C 185.199219 221.070312 188.242188 219.386719 188.242188 216.6875 L 188.242188 201.199219 L 207.789062 201.199219 C 214.851562 201.199219 220.25 195.476562 220.25 188.738281 L 220.25 132.132812 C 220.25 125.050781 214.527344 119.328125 207.789062 119.328125 " fill-opacity="1" fill-rule="nonzero"/></g><path fill="#2d8407" d="M 28.875 105.847656 L 83.128906 105.847656 C 85.136719 105.847656 86.496094 104.507812 86.496094 102.480469 C 86.496094 100.46875 85.136719 99.109375 83.128906 99.109375 L 28.875 99.109375 C 26.867188 99.109375 25.507812 100.46875 25.507812 102.480469 C 25.507812 104.507812 26.867188 105.847656 28.875 105.847656 " fill-opacity="1" fill-rule="nonzero"/><path fill="#2d8407" d="M 28.875 126.066406 L 83.128906 126.066406 C 85.136719 126.066406 86.496094 124.726562 86.496094 122.695312 C 86.496094 120.683594 85.136719 119.328125 83.128906 119.328125 L 28.875 119.328125 C 26.867188 119.328125 25.507812 120.683594 25.507812 122.695312 C 25.507812 124.726562 26.867188 126.066406 28.875 126.066406 " fill-opacity="1" fill-rule="nonzero"/><path fill="#2d8407" d="M 129.28125 142.910156 C 129.28125 140.902344 127.941406 139.542969 125.914062 139.542969 L 28.875 139.542969 C 26.867188 139.542969 25.507812 140.902344 25.507812 142.910156 C 25.507812 144.941406 26.867188 146.28125 28.875 146.28125 L 125.914062 146.28125 C 127.921875 146.28125 129.28125 144.59375 129.28125 142.910156 " fill-opacity="1" fill-rule="nonzero"/><path fill="#2d8407" d="M 200.378906 145.265625 L 166.6875 145.265625 C 164.660156 145.265625 163.316406 146.625 163.316406 148.632812 C 163.316406 150.664062 164.660156 152.003906 166.6875 152.003906 L 200.378906 152.003906 C 202.390625 152.003906 203.75 150.664062 203.75 148.632812 C 203.75 146.625 202.390625 145.265625 200.378906 145.265625 " fill-opacity="1" fill-rule="nonzero"/><path fill="#2d8407" d="M 200.378906 168.847656 L 166.6875 168.847656 C 164.660156 168.847656 163.316406 170.207031 163.316406 172.21875 C 163.316406 174.246094 164.660156 175.585938 166.6875 175.585938 L 200.378906 175.585938 C 202.390625 175.585938 203.75 174.246094 203.75 172.21875 C 203.75 170.207031 202.390625 168.847656 200.378906 168.847656 " fill-opacity="1" fill-rule="nonzero"/><g fill="#000000" fill-opacity="1"><g transform="translate(112.337982, 165.436935)"><g><path d="M 0.171875 0.234375 C 0.179688 0.234375 0.1875 0.234375 0.1875 0.234375 C 0.1875 0.242188 0.1875 0.25 0.1875 0.25 C 0.1875 0.257812 0.179688 0.265625 0.171875 0.265625 C 0.171875 0.285156 0.160156 0.300781 0.140625 0.3125 C 0.128906 0.320312 0.109375 0.332031 0.078125 0.34375 C 0.0546875 0.34375 0.0351562 0.335938 0.015625 0.328125 C -0.00390625 0.316406 -0.0195312 0.296875 -0.03125 0.265625 C -0.03125 0.242188 -0.03125 0.222656 -0.03125 0.203125 C -0.03125 0.179688 -0.03125 0.160156 -0.03125 0.140625 C -0.0195312 0.128906 -0.0078125 0.113281 0 0.09375 C 0.0078125 0.0703125 0.015625 0.0507812 0.015625 0.03125 C 0.015625 0.0195312 0.015625 0.0078125 0.015625 0 C 0.0234375 0 0.03125 -0.00390625 0.03125 -0.015625 C 0.03125 -0.015625 0.0234375 -0.015625 0.015625 -0.015625 C 0.015625 -0.015625 0.015625 -0.0078125 0.015625 0 C 0.00390625 0.0078125 -0.00390625 0.0078125 -0.015625 0 C -0.0234375 -0.0078125 -0.03125 -0.015625 -0.03125 -0.015625 C -0.03125 -0.0234375 -0.03125 -0.0351562 -0.03125 -0.046875 C -0.0195312 -0.0664062 -0.0078125 -0.0820312 0 -0.09375 C 0.0078125 -0.113281 0.0195312 -0.128906 0.03125 -0.140625 C 0.0390625 -0.148438 0.0507812 -0.15625 0.0625 -0.15625 C 0.0703125 -0.15625 0.0820312 -0.148438 0.09375 -0.140625 C 0.09375 -0.140625 0.0976562 -0.140625 0.109375 -0.140625 C 0.109375 -0.148438 0.109375 -0.15625 0.109375 -0.15625 C 0.117188 -0.15625 0.125 -0.15625 0.125 -0.15625 C 0.132812 -0.144531 0.132812 -0.132812 0.125 -0.125 C 0.125 -0.113281 0.117188 -0.101562 0.109375 -0.09375 C 0.0976562 -0.0820312 0.09375 -0.0703125 0.09375 -0.0625 C 0.0703125 -0.03125 0.0507812 0.00390625 0.03125 0.046875 C 0.0195312 0.0859375 0.0078125 0.128906 0 0.171875 C 0 0.179688 0 0.191406 0 0.203125 C -0.0078125 0.222656 -0.015625 0.242188 -0.015625 0.265625 C -0.00390625 0.273438 0 0.28125 0 0.28125 C 0.0078125 0.289062 0.015625 0.300781 0.015625 0.3125 C 0.0234375 0.320312 0.03125 0.328125 0.03125 0.328125 C 0.0390625 0.328125 0.046875 0.328125 0.046875 0.328125 C 0.0546875 0.328125 0.0664062 0.328125 0.078125 0.328125 C 0.0859375 0.328125 0.0976562 0.320312 0.109375 0.3125 C 0.128906 0.300781 0.144531 0.289062 0.15625 0.28125 C 0.164062 0.28125 0.171875 0.273438 0.171875 0.265625 C 0.171875 0.253906 0.171875 0.242188 0.171875 0.234375 Z M 0 -0.015625 C 0.0078125 -0.0234375 0.015625 -0.03125 0.015625 -0.03125 C 0.0234375 -0.0390625 0.0351562 -0.0507812 0.046875 -0.0625 C 0.0546875 -0.0703125 0.0625 -0.078125 0.0625 -0.078125 C 0.0703125 -0.0859375 0.078125 -0.0976562 0.078125 -0.109375 C 0.078125 -0.117188 0.078125 -0.125 0.078125 -0.125 C 0.078125 -0.125 0.078125 -0.128906 0.078125 -0.140625 C 0.078125 -0.140625 0.0703125 -0.132812 0.0625 -0.125 C 0.03125 -0.101562 0.0078125 -0.0820312 0 -0.0625 C 0 -0.0507812 0 -0.0390625 0 -0.03125 C -0.0078125 -0.03125 -0.015625 -0.0234375 -0.015625 -0.015625 C -0.015625 -0.015625 -0.0078125 -0.015625 0 -0.015625 Z M 0 -0.015625 "/></g></g></g></svg>